<mxfile host="app.diagrams.net" modified="2021-09-01T06:06:34.989Z" agent="5.0 (Windows NT 10.0; Win64; x64) AppleWebKit/537.36 (KHTML, like Gecko) Chrome/92.0.4515.159 Safari/537.36" etag="zLFTgY8kfAKKR_QzD-NE" version="15.0.2" type="github" pages="2">
  <diagram id="Se6XTYpfHr03R9SdmOIB" name="Page-1">
    <mxGraphModel dx="782" dy="380" grid="1" gridSize="10" guides="1" tooltips="1" connect="1" arrows="1" fold="1" page="1" pageScale="1" pageWidth="850" pageHeight="1100" math="0" shadow="0">
      <root>
        <mxCell id="0" />
        <mxCell id="1" parent="0" />
        <mxCell id="fQDhmyt-j5pyvX-NRoVn-1" value="br-int" style="rounded=0;whiteSpace=wrap;html=1;" parent="1" vertex="1">
          <mxGeometry x="400" y="915" width="260" height="110" as="geometry" />
        </mxCell>
        <mxCell id="fQDhmyt-j5pyvX-NRoVn-2" style="edgeStyle=orthogonalEdgeStyle;rounded=0;orthogonalLoop=1;jettySize=auto;html=1;exitX=1;exitY=0.25;exitDx=0;exitDy=0;" parent="1" source="fQDhmyt-j5pyvX-NRoVn-6" edge="1">
          <mxGeometry relative="1" as="geometry">
            <mxPoint x="550" y="1005" as="targetPoint" />
            <Array as="points">
              <mxPoint x="550" y="940" />
              <mxPoint x="550" y="1005" />
            </Array>
          </mxGeometry>
        </mxCell>
        <mxCell id="fQDhmyt-j5pyvX-NRoVn-3" value="Packet 1" style="edgeLabel;html=1;align=center;verticalAlign=middle;resizable=0;points=[];" parent="fQDhmyt-j5pyvX-NRoVn-2" vertex="1" connectable="0">
          <mxGeometry x="-0.5839" y="-4" relative="1" as="geometry">
            <mxPoint x="2" y="-14" as="offset" />
          </mxGeometry>
        </mxCell>
        <mxCell id="fQDhmyt-j5pyvX-NRoVn-6" value="VM1" style="rounded=0;whiteSpace=wrap;html=1;" parent="1" vertex="1">
          <mxGeometry x="180" y="910" width="90" height="40" as="geometry" />
        </mxCell>
        <mxCell id="fQDhmyt-j5pyvX-NRoVn-8" value="vxlan1" style="rounded=0;whiteSpace=wrap;html=1;" parent="1" vertex="1">
          <mxGeometry x="510.5" y="1010" width="46" height="20" as="geometry" />
        </mxCell>
        <mxCell id="fQDhmyt-j5pyvX-NRoVn-11" value="br-ex" style="rounded=0;whiteSpace=wrap;html=1;" parent="1" vertex="1">
          <mxGeometry x="410" y="1140" width="260" height="80" as="geometry" />
        </mxCell>
        <mxCell id="fQDhmyt-j5pyvX-NRoVn-13" style="edgeStyle=orthogonalEdgeStyle;rounded=0;orthogonalLoop=1;jettySize=auto;html=1;startArrow=classic;startFill=1;exitX=0.5;exitY=1;exitDx=0;exitDy=0;" parent="1" source="fQDhmyt-j5pyvX-NRoVn-24" edge="1">
          <mxGeometry relative="1" as="geometry">
            <mxPoint x="520" y="1230" as="sourcePoint" />
            <mxPoint x="540" y="1347" as="targetPoint" />
          </mxGeometry>
        </mxCell>
        <mxCell id="fQDhmyt-j5pyvX-NRoVn-19" value="&lt;br&gt;" style="rounded=0;whiteSpace=wrap;html=1;" parent="1" vertex="1">
          <mxGeometry x="440.63" y="1350" width="200" height="85" as="geometry" />
        </mxCell>
        <mxCell id="fQDhmyt-j5pyvX-NRoVn-20" value="phy0" style="rounded=0;whiteSpace=wrap;html=1;" parent="1" vertex="1">
          <mxGeometry x="480.25" y="1395" width="46" height="20" as="geometry" />
        </mxCell>
        <mxCell id="fQDhmyt-j5pyvX-NRoVn-24" value="bond0" style="rounded=0;whiteSpace=wrap;html=1;" parent="1" vertex="1">
          <mxGeometry x="500" y="1200" width="80" height="20" as="geometry" />
        </mxCell>
        <mxCell id="fQDhmyt-j5pyvX-NRoVn-29" value="br-ex + tag" style="rounded=0;whiteSpace=wrap;html=1;" parent="1" vertex="1">
          <mxGeometry x="500" y="1140" width="81.25" height="30" as="geometry" />
        </mxCell>
        <mxCell id="fQDhmyt-j5pyvX-NRoVn-30" value="" style="endArrow=classic;html=1;entryX=0.406;entryY=-0.083;entryDx=0;entryDy=0;entryPerimeter=0;" parent="1" target="fQDhmyt-j5pyvX-NRoVn-29" edge="1">
          <mxGeometry width="50" height="50" relative="1" as="geometry">
            <mxPoint x="533" y="1030" as="sourcePoint" />
            <mxPoint x="430" y="1060" as="targetPoint" />
            <Array as="points">
              <mxPoint x="534" y="1030" />
            </Array>
          </mxGeometry>
        </mxCell>
        <mxCell id="5R9nfQgPgI07h1-Fxhpp-7" value="bond0" style="rounded=0;whiteSpace=wrap;html=1;" vertex="1" parent="1">
          <mxGeometry x="510.95" y="1360" width="59.37" height="25" as="geometry" />
        </mxCell>
        <mxCell id="5R9nfQgPgI07h1-Fxhpp-8" value="phy1" style="rounded=0;whiteSpace=wrap;html=1;" vertex="1" parent="1">
          <mxGeometry x="570.3199999999999" y="1395" width="50" height="20" as="geometry" />
        </mxCell>
        <mxCell id="5R9nfQgPgI07h1-Fxhpp-16" style="edgeStyle=orthogonalEdgeStyle;rounded=0;orthogonalLoop=1;jettySize=auto;html=1;entryX=0.25;entryY=0;entryDx=0;entryDy=0;" edge="1" parent="1" source="5R9nfQgPgI07h1-Fxhpp-15" target="fQDhmyt-j5pyvX-NRoVn-8">
          <mxGeometry relative="1" as="geometry" />
        </mxCell>
        <mxCell id="5R9nfQgPgI07h1-Fxhpp-15" value="vm2" style="rounded=0;whiteSpace=wrap;html=1;" vertex="1" parent="1">
          <mxGeometry x="180" y="960" width="90" height="50" as="geometry" />
        </mxCell>
        <mxCell id="5R9nfQgPgI07h1-Fxhpp-17" value="packet 2" style="text;html=1;align=center;verticalAlign=middle;resizable=0;points=[];autosize=1;strokeColor=none;" vertex="1" parent="1">
          <mxGeometry x="290" y="970" width="60" height="20" as="geometry" />
        </mxCell>
      </root>
    </mxGraphModel>
  </diagram>
  <diagram name="Proposed config" id="sUqZwrb_pd6D-fT1TIno">
    <mxGraphModel dx="1032" dy="741" grid="1" gridSize="10" guides="1" tooltips="1" connect="1" arrows="1" fold="1" page="1" pageScale="1" pageWidth="827" pageHeight="1169" math="0" shadow="0">
      <root>
        <mxCell id="jkeKriuswhtTPsXYhGdO-0" />
        <mxCell id="jkeKriuswhtTPsXYhGdO-1" parent="jkeKriuswhtTPsXYhGdO-0" />
        <mxCell id="qsPqqNMtwmIho6Vqvbdh-0" value="br-int" style="rounded=0;whiteSpace=wrap;html=1;" vertex="1" parent="jkeKriuswhtTPsXYhGdO-1">
          <mxGeometry x="1090" y="85" width="260" height="110" as="geometry" />
        </mxCell>
        <mxCell id="qsPqqNMtwmIho6Vqvbdh-1" style="edgeStyle=orthogonalEdgeStyle;rounded=0;orthogonalLoop=1;jettySize=auto;html=1;exitX=1;exitY=0.25;exitDx=0;exitDy=0;entryX=0.5;entryY=0;entryDx=0;entryDy=0;" edge="1" parent="jkeKriuswhtTPsXYhGdO-1" source="qsPqqNMtwmIho6Vqvbdh-5" target="qsPqqNMtwmIho6Vqvbdh-9">
          <mxGeometry relative="1" as="geometry" />
        </mxCell>
        <mxCell id="qsPqqNMtwmIho6Vqvbdh-2" value="Packet 1" style="edgeLabel;html=1;align=center;verticalAlign=middle;resizable=0;points=[];" vertex="1" connectable="0" parent="qsPqqNMtwmIho6Vqvbdh-1">
          <mxGeometry x="-0.5839" y="-4" relative="1" as="geometry">
            <mxPoint x="2" y="-9" as="offset" />
          </mxGeometry>
        </mxCell>
        <mxCell id="qsPqqNMtwmIho6Vqvbdh-3" style="edgeStyle=orthogonalEdgeStyle;rounded=0;orthogonalLoop=1;jettySize=auto;html=1;exitX=1;exitY=0.5;exitDx=0;exitDy=0;entryX=0.5;entryY=0;entryDx=0;entryDy=0;" edge="1" parent="jkeKriuswhtTPsXYhGdO-1" source="qsPqqNMtwmIho6Vqvbdh-5" target="qsPqqNMtwmIho6Vqvbdh-7">
          <mxGeometry relative="1" as="geometry" />
        </mxCell>
        <mxCell id="qsPqqNMtwmIho6Vqvbdh-4" value="Packet 2" style="edgeLabel;html=1;align=center;verticalAlign=middle;resizable=0;points=[];" vertex="1" connectable="0" parent="qsPqqNMtwmIho6Vqvbdh-3">
          <mxGeometry x="-0.2936" y="4" relative="1" as="geometry">
            <mxPoint x="13" as="offset" />
          </mxGeometry>
        </mxCell>
        <mxCell id="qsPqqNMtwmIho6Vqvbdh-5" value="VM" style="rounded=0;whiteSpace=wrap;html=1;" vertex="1" parent="jkeKriuswhtTPsXYhGdO-1">
          <mxGeometry x="870" y="80" width="90" height="120" as="geometry" />
        </mxCell>
        <mxCell id="qsPqqNMtwmIho6Vqvbdh-6" style="edgeStyle=orthogonalEdgeStyle;rounded=0;orthogonalLoop=1;jettySize=auto;html=1;exitX=0.5;exitY=1;exitDx=0;exitDy=0;entryX=0.5;entryY=0;entryDx=0;entryDy=0;startArrow=classic;startFill=1;" edge="1" parent="jkeKriuswhtTPsXYhGdO-1" source="qsPqqNMtwmIho6Vqvbdh-7" target="qsPqqNMtwmIho6Vqvbdh-11">
          <mxGeometry relative="1" as="geometry" />
        </mxCell>
        <mxCell id="qsPqqNMtwmIho6Vqvbdh-7" value="tun_1" style="rounded=0;whiteSpace=wrap;html=1;" vertex="1" parent="jkeKriuswhtTPsXYhGdO-1">
          <mxGeometry x="1110" y="175" width="46" height="20" as="geometry" />
        </mxCell>
        <mxCell id="qsPqqNMtwmIho6Vqvbdh-8" style="edgeStyle=orthogonalEdgeStyle;rounded=0;orthogonalLoop=1;jettySize=auto;html=1;exitX=0.5;exitY=1;exitDx=0;exitDy=0;startArrow=classic;startFill=1;" edge="1" parent="jkeKriuswhtTPsXYhGdO-1" source="qsPqqNMtwmIho6Vqvbdh-9" target="qsPqqNMtwmIho6Vqvbdh-15">
          <mxGeometry relative="1" as="geometry" />
        </mxCell>
        <mxCell id="qsPqqNMtwmIho6Vqvbdh-9" value="tun_2" style="rounded=0;whiteSpace=wrap;html=1;" vertex="1" parent="jkeKriuswhtTPsXYhGdO-1">
          <mxGeometry x="1270" y="175" width="46" height="20" as="geometry" />
        </mxCell>
        <mxCell id="qsPqqNMtwmIho6Vqvbdh-10" value="br-ex" style="rounded=0;whiteSpace=wrap;html=1;" vertex="1" parent="jkeKriuswhtTPsXYhGdO-1">
          <mxGeometry x="1055" y="310" width="335" height="80" as="geometry" />
        </mxCell>
        <mxCell id="qsPqqNMtwmIho6Vqvbdh-11" value="ovs_tag_1" style="rounded=0;whiteSpace=wrap;html=1;" vertex="1" parent="jkeKriuswhtTPsXYhGdO-1">
          <mxGeometry x="1093" y="310" width="80" height="20" as="geometry" />
        </mxCell>
        <mxCell id="qsPqqNMtwmIho6Vqvbdh-12" value="bond0" style="rounded=0;whiteSpace=wrap;html=1;" vertex="1" parent="jkeKriuswhtTPsXYhGdO-1">
          <mxGeometry x="1110" y="500" width="200" height="85" as="geometry" />
        </mxCell>
        <mxCell id="qsPqqNMtwmIho6Vqvbdh-13" value="phy0" style="rounded=0;whiteSpace=wrap;html=1;" vertex="1" parent="jkeKriuswhtTPsXYhGdO-1">
          <mxGeometry x="1150.25" y="555" width="46" height="20" as="geometry" />
        </mxCell>
        <mxCell id="qsPqqNMtwmIho6Vqvbdh-14" value="phy1" style="rounded=0;whiteSpace=wrap;html=1;" vertex="1" parent="jkeKriuswhtTPsXYhGdO-1">
          <mxGeometry x="1214.25" y="555" width="46" height="20" as="geometry" />
        </mxCell>
        <mxCell id="qsPqqNMtwmIho6Vqvbdh-15" value="ovs_tag_2" style="rounded=0;whiteSpace=wrap;html=1;" vertex="1" parent="jkeKriuswhtTPsXYhGdO-1">
          <mxGeometry x="1253" y="310" width="80" height="20" as="geometry" />
        </mxCell>
        <mxCell id="qsPqqNMtwmIho6Vqvbdh-16" style="edgeStyle=orthogonalEdgeStyle;rounded=0;orthogonalLoop=1;jettySize=auto;html=1;exitX=0.5;exitY=1;exitDx=0;exitDy=0;entryX=0.5;entryY=0;entryDx=0;entryDy=0;startArrow=classic;startFill=1;" edge="1" parent="jkeKriuswhtTPsXYhGdO-1" source="qsPqqNMtwmIho6Vqvbdh-17" target="qsPqqNMtwmIho6Vqvbdh-12">
          <mxGeometry relative="1" as="geometry" />
        </mxCell>
        <mxCell id="qsPqqNMtwmIho6Vqvbdh-17" value="bond0" style="rounded=0;whiteSpace=wrap;html=1;" vertex="1" parent="jkeKriuswhtTPsXYhGdO-1">
          <mxGeometry x="1170" y="370" width="80" height="20" as="geometry" />
        </mxCell>
        <mxCell id="qsPqqNMtwmIho6Vqvbdh-18" value="&lt;pre style=&quot;overflow-wrap: break-word&quot;&gt;$ vsctl add-port br-ex vlan2 tag=2 -- set \&lt;br&gt;      interface vlan2 type=internal&lt;/pre&gt;&lt;pre style=&quot;overflow-wrap: break-word&quot;&gt;&lt;br&gt;$ ip addr add dev vlan2 tun_2_IP&lt;/pre&gt;" style="text;html=1;strokeColor=none;fillColor=none;align=left;verticalAlign=middle;whiteSpace=wrap;rounded=0;" vertex="1" parent="jkeKriuswhtTPsXYhGdO-1">
          <mxGeometry x="1410" y="310" width="330" height="80" as="geometry" />
        </mxCell>
        <mxCell id="NYyZkpxdCXtS0F1OoumL-0" value="&lt;pre style=&quot;overflow-wrap: break-word&quot;&gt;$ vsctl add-port br-ex vlan1 tag=1 -- set \&lt;br&gt;      interface vlan1 type=internal&lt;/pre&gt;&lt;pre style=&quot;overflow-wrap: break-word&quot;&gt;&lt;br&gt;$ ip addr add dev vlan1 tun_1_IP&lt;/pre&gt;" style="text;html=1;strokeColor=none;fillColor=none;align=left;verticalAlign=middle;whiteSpace=wrap;rounded=0;" vertex="1" parent="jkeKriuswhtTPsXYhGdO-1">
          <mxGeometry x="720" y="310" width="330" height="80" as="geometry" />
        </mxCell>
      </root>
    </mxGraphModel>
  </diagram>
</mxfile>
